<svg width="56" height="52" viewBox="0 0 56 52" fill="none" xmlns="http://www.w3.org/2000/svg">
<path d="M54.9125 18.2562L54.9125 18.2562C55.0761 18.3654 55.2101 18.5131 55.3028 18.6865C55.3955 18.8599 55.4439 19.0535 55.4437 19.25M54.9125 18.2562L0.55625 19.25H0.65625L0.55625 19.25L0.55625 47.6875C0.55625 48.5842 0.912488 49.4443 1.5466 50.0784C2.1807 50.7125 3.04074 51.0687 3.9375 51.0687H52.0625C52.9593 51.0687 53.8193 50.7125 54.4534 50.0784C55.0875 49.4443 55.4437 48.5842 55.4437 47.6875V19.25M54.9125 18.2562L28.6625 0.756246L54.9125 18.2562ZM55.4437 19.25L55.3438 19.25H55.4437V19.25ZM27.3375 0.756246L27.393 0.839431L27.3375 0.756226L27.3375 0.756246ZM2.94375 21.566L21.1635 34.5621L2.94375 47.4288V21.566ZM5.30789 48.6812L23.6075 35.7562H32.3925L50.7029 48.6812H5.30789ZM53.0563 47.4288L34.8364 34.5621L53.0563 21.566V47.4288ZM23.6105 33.3687L3.85387 19.2828L28 3.18539L52.1597 19.2828L32.3895 33.3687H23.6105Z" fill="black" stroke="black" stroke-width="0.2"/>
</svg>
