<svg width="90" height="90" viewBox="0 0 90 90" fill="none" xmlns="http://www.w3.org/2000/svg">
<path d="M52.5 34.875V45.75H62.25C63 45.75 63.375 46.5 63.375 47.25L61.875 54.375C61.875 54.75 61.125 55.125 60.75 55.125H52.5V82.5H41.25V55.5H34.875C34.125 55.5 33.75 55.125 33.75 54.375V47.25C33.75 46.5 34.125 46.125 34.875 46.125H41.25V33.75C41.25 27.375 46.125 22.5 52.5 22.5H62.625C63.375 22.5 63.75 22.875 63.75 23.625V32.625C63.75 33.375 63.375 33.75 62.625 33.75H53.625C52.875 33.75 52.5 34.125 52.5 34.875Z" stroke="black" stroke-width="5.625" stroke-miterlimit="10" stroke-linecap="round"/>
<path d="M56.25 82.5H33.75C15 82.5 7.5 75 7.5 56.25V33.75C7.5 15 15 7.5 33.75 7.5H56.25C75 7.5 82.5 15 82.5 33.75V56.25C82.5 75 75 82.5 56.25 82.5Z" stroke="black" stroke-width="5.625" stroke-linecap="round" stroke-linejoin="round"/>
</svg>
