<svg width="74" height="81" viewBox="0 0 74 81" fill="none" xmlns="http://www.w3.org/2000/svg">
<path d="M3 78H70.5M12.75 26.925H6.75C4.6875 26.925 3 28.6125 3 30.675V63C3 65.0625 4.6875 66.75 6.75 66.75H12.75C14.8125 66.75 16.5 65.0625 16.5 63V30.675C16.5 28.6125 14.8125 26.925 12.75 26.925ZM39.75 14.9625H33.75C31.6875 14.9625 30 16.65 30 18.7125V63C30 65.0625 31.6875 66.75 33.75 66.75H39.75C41.8125 66.75 43.5 65.0625 43.5 63V18.7125C43.5 16.65 41.8125 14.9625 39.75 14.9625ZM66.75 3H60.75C58.6875 3 57 4.6875 57 6.75V63C57 65.0625 58.6875 66.75 60.75 66.75H66.75C68.8125 66.75 70.5 65.0625 70.5 63V6.75C70.5 4.6875 68.8125 3 66.75 3Z" stroke="white" stroke-width="5.625" stroke-linecap="round" stroke-linejoin="round"/>
</svg>
