<?xml version="1.0" encoding="utf-8"?>
<!-- Generator: Adobe Illustrator 17.0.0, SVG Export Plug-In . SVG Version: 6.00 Build 0)  -->
<!DOCTYPE svg PUBLIC "-//W3C//DTD SVG 1.1//EN" "http://www.w3.org/Graphics/SVG/1.1/DTD/svg11.dtd">
<svg version="1.1" id="Layer_1" xmlns="http://www.w3.org/2000/svg" xmlns:xlink="http://www.w3.org/1999/xlink" x="0px" y="0px"
	 width="209px" height="422px" viewBox="0 0 209 422" enable-background="new 0 0 209 422" xml:space="preserve">
<path fill="#353432" d="M207.98,108.45h-0.86V47.87c0-2.86,0-5.48-0.02-7.88c-0.01-1.42-0.02-2.76-0.04-4.03
	c-0.18-9.25-0.82-14.96-3.2-19.63c-2.87-5.62-7.45-10.2-13.08-13.07c-5.85-2.98-13.35-3.24-27.39-3.25C162.1,0,160.76,0,159.36,0
	H49.31C32.55,0,24.17,0,17.77,3.26C12.14,6.13,7.57,10.71,4.7,16.33C2.32,21,1.68,26.71,1.5,35.96c-0.02,1.27-0.03,2.61-0.05,4.03
	c-0.01,2.4-0.01,5.02-0.01,7.88v18.87H0.58C0.26,66.74,0,67,0,67.31v15.54c0,0.31,0.26,0.57,0.58,0.57h0.86v13.52H0.58
	C0.26,96.94,0,97.2,0,97.52v31.07c0,0.31,0.26,0.57,0.58,0.57h0.86v7.19H0.58c-0.32,0-0.58,0.26-0.58,0.58v31.06
	c0,0.32,0.26,0.58,0.58,0.58h0.86v205.56c0,3.56,0,6.74,0.03,9.61c0.02,1.42,0.04,2.76,0.08,4.03c0.22,8.24,0.93,13.53,3.15,17.9
	c2.87,5.62,7.44,10.2,13.07,13.07c4.81,2.45,10.73,3.06,20.49,3.21c1.28,0.02,2.62,0.03,4.03,0.04c2.16,0.01,4.5,0.01,7.02,0.01
	h109.94c16.76,0,25.13,0,31.53-3.26c5.63-2.87,10.21-7.45,13.08-13.07c2.22-4.37,2.93-9.66,3.15-17.9c0.04-1.27,0.06-2.61,0.08-4.03
	c0.03-2.87,0.03-6.05,0.03-9.61V158.5h0.86c0.32,0,0.57-0.26,0.57-0.57v-48.91C208.55,108.71,208.3,108.45,207.98,108.45z
	 M186.37,409.51c-4.19,2.13-9.66,2.13-20.62,2.13H42.8c-10.95,0-16.43,0-20.61-2.13c-3.68-1.87-6.68-4.87-8.55-8.55
	c-1.05-2.06-1.59-4.44-1.85-7.65V28.69c0.26-3.21,0.8-5.59,1.85-7.65c1.87-3.68,4.87-6.68,8.55-8.55c4.18-2.13,9.66-2.13,20.61-2.13
	h9.62c0.47,0,0.71,0,0.9,0.07c0.32,0.11,0.57,0.36,0.69,0.68c0.07,0.19,0.07,0.43,0.07,0.91c0,3.81,0,5.71,0.56,7.24
	c0.93,2.55,2.94,4.57,5.5,5.5c1.52,0.55,3.43,0.55,7.24,0.55h73.8c3.81,0,5.71,0,7.24-0.55c2.56-0.93,4.57-2.95,5.5-5.5
	c0.55-1.53,0.55-3.43,0.55-7.24c0-0.48,0-0.72,0.07-0.91c0.12-0.32,0.37-0.57,0.69-0.68c0.19-0.07,0.43-0.07,0.91-0.07h9.61
	c10.96,0,16.43,0,20.62,2.13c3.68,1.87,6.67,4.87,8.55,8.55c2.13,4.18,2.13,9.66,2.13,20.61v338.7c0,10.95,0,16.43-2.13,20.61
	C193.04,404.64,190.05,407.64,186.37,409.51z"/>
<g>
	<defs>
		<filter id="Adobe_OpacityMaskFilter" filterUnits="userSpaceOnUse" x="0.288" y="-2.014" width="207.98" height="425.164">
			<feColorMatrix  type="matrix" values="1 0 0 0 0  0 1 0 0 0  0 0 1 0 0  0 0 0 1 0"/>
		</filter>
	</defs>
	<mask maskUnits="userSpaceOnUse" x="0.288" y="-2.014" width="207.98" height="425.164" id="mask0_81_101">
		<path filter="url(#Adobe_OpacityMaskFilter)" d="M1.438,47.867c0-16.755,0-25.133,3.261-31.532
			c2.868-5.629,7.445-10.206,13.074-13.074C24.173,0,32.55,0,49.305,0H159.25c16.755,0,25.132,0,31.532,3.261
			c5.629,2.868,10.206,7.445,13.074,13.074c3.261,6.399,3.261,14.777,3.261,31.532v326.266c0,16.755,0,25.133-3.261,31.532
			c-2.868,5.629-7.445,10.206-13.074,13.074C184.382,422,176.005,422,159.25,422H49.305c-16.755,0-25.132,0-31.532-3.261
			c-5.629-2.868-10.206-7.445-13.074-13.074c-3.261-6.399-3.261-14.777-3.261-31.532V47.867z"/>
	</mask>
	<g mask="url(#mask0_81_101)">
		<g>
			<path fill="#EBEBEB" d="M207.1,39.99c-0.01-1.42-0.02-2.76-0.04-4.03c-0.18-9.25-0.82-14.96-3.2-19.63
				c-2.87-5.62-7.45-10.2-13.08-13.07c-5.85-2.98-13.35-3.24-27.39-3.25C162.1,0,160.76,0,159.36,0H49.31
				C32.55,0,24.17,0,17.77,3.26C12.14,6.13,7.57,10.71,4.7,16.33C2.32,21,1.68,26.71,1.5,35.96c-0.02,1.27-0.03,2.61-0.05,4.03
				c-0.01,2.4-0.01,5.02-0.01,7.88v326.26c0,3.56,0,6.74,0.03,9.61c0.02,1.42,0.04,2.76,0.08,4.03c0.22,8.24,0.93,13.53,3.15,17.9
				c2.87,5.62,7.44,10.2,13.07,13.07c4.81,2.45,10.73,3.06,20.49,3.21c1.28,0.02,2.62,0.03,4.03,0.04c2.16,0.01,4.5,0.01,7.02,0.01
				h109.94c16.76,0,25.13,0,31.53-3.26c5.63-2.87,10.21-7.45,13.08-13.07c2.22-4.37,2.93-9.66,3.15-17.9
				c0.04-1.27,0.06-2.61,0.08-4.03c0.03-2.87,0.03-6.05,0.03-9.61V47.87C207.12,45.01,207.12,42.39,207.1,39.99z M186.37,409.51
				c-4.19,2.13-9.66,2.13-20.62,2.13H42.8c-10.95,0-16.43,0-20.61-2.13c-3.68-1.87-6.68-4.87-8.55-8.55
				c-1.05-2.06-1.59-4.44-1.85-7.65V28.69c0.26-3.21,0.8-5.59,1.85-7.65c1.87-3.68,4.87-6.68,8.55-8.55
				c4.18-2.13,9.66-2.13,20.61-2.13h9.62c0.47,0,0.71,0,0.9,0.07c0.32,0.11,0.57,0.36,0.69,0.68c0.07,0.19,0.07,0.43,0.07,0.91
				c0,3.81,0,5.71,0.56,7.24c0.93,2.55,2.94,4.57,5.5,5.5c1.52,0.55,3.43,0.55,7.24,0.55h73.8c3.81,0,5.71,0,7.24-0.55
				c2.56-0.93,4.57-2.95,5.5-5.5c0.55-1.53,0.55-3.43,0.55-7.24c0-0.48,0-0.72,0.07-0.91c0.12-0.32,0.37-0.57,0.69-0.68
				c0.19-0.07,0.43-0.07,0.91-0.07h9.61c10.96,0,16.43,0,20.62,2.13c3.68,1.87,6.67,4.87,8.55,8.55c2.13,4.18,2.13,9.66,2.13,20.61
				v338.7c0,10.95,0,16.43-2.13,20.61C193.04,404.64,190.05,407.64,186.37,409.51z"/>
		</g>
		
			<linearGradient id="SVGID_1_" gradientUnits="userSpaceOnUse" x1="0.2877" y1="385.0286" x2="5.1779" y2="385.0286" gradientTransform="matrix(1 0 0 -1 0 423)">
			<stop  offset="0.1094" style="stop-color:#D1D1D1"/>
			<stop  offset="0.3177" style="stop-color:#E3E3E3"/>
			<stop  offset="0.5521" style="stop-color:#D2D2D2"/>
			<stop  offset="0.8073" style="stop-color:#E6E6E6"/>
		</linearGradient>
		<rect x="0.288" y="35.958" fill="url(#SVGID_1_)" width="4.89" height="4.027"/>
		
			<linearGradient id="SVGID_2_" gradientUnits="userSpaceOnUse" x1="0.2877" y1="37.2454" x2="5.1779" y2="37.2454" gradientTransform="matrix(1 0 0 -1 0 423)">
			<stop  offset="0.1094" style="stop-color:#D1D1D1"/>
			<stop  offset="0.3177" style="stop-color:#E3E3E3"/>
			<stop  offset="0.5521" style="stop-color:#D2D2D2"/>
			<stop  offset="0.8073" style="stop-color:#E6E6E6"/>
		</linearGradient>
		<rect x="0.288" y="383.741" fill="url(#SVGID_2_)" width="4.89" height="4.027"/>
		
			<linearGradient id="SVGID_3_" gradientUnits="userSpaceOnUse" x1="203.377" y1="385.0286" x2="208.2672" y2="385.0286" gradientTransform="matrix(1 0 0 -1 0 423)">
			<stop  offset="0.0988" style="stop-color:#E6E6E6"/>
			<stop  offset="0.3688" style="stop-color:#D2D2D2"/>
			<stop  offset="0.6245" style="stop-color:#E3E3E3"/>
			<stop  offset="0.7986" style="stop-color:#D1D1D1"/>
		</linearGradient>
		<rect x="203.377" y="35.958" fill="url(#SVGID_3_)" width="4.89" height="4.027"/>
		
			<linearGradient id="SVGID_4_" gradientUnits="userSpaceOnUse" x1="203.377" y1="37.2454" x2="208.2672" y2="37.2454" gradientTransform="matrix(1 0 0 -1 0 423)">
			<stop  offset="0.0988" style="stop-color:#E6E6E6"/>
			<stop  offset="0.3688" style="stop-color:#D2D2D2"/>
			<stop  offset="0.6245" style="stop-color:#E3E3E3"/>
			<stop  offset="0.7986" style="stop-color:#D1D1D1"/>
		</linearGradient>
		<rect x="203.377" y="383.741" fill="url(#SVGID_4_)" width="4.89" height="4.027"/>
		
			<linearGradient id="SVGID_5_" gradientUnits="userSpaceOnUse" x1="146.892" y1="808.5001" x2="151.7822" y2="808.5001" gradientTransform="matrix(6.123234e-017 1 1 -6.123234e-017 -647.1217 -148.9057)">
			<stop  offset="0.2383" style="stop-color:#D1D1D1"/>
			<stop  offset="0.4167" style="stop-color:#E3E3E3"/>
			<stop  offset="0.7002" style="stop-color:#D2D2D2"/>
			<stop  offset="0.9264" style="stop-color:#E6E6E6"/>
		</linearGradient>
		<rect x="159.365" y="-2.014" fill="url(#SVGID_5_)" width="4.027" height="4.89"/>
		
			<linearGradient id="SVGID_6_" gradientUnits="userSpaceOnUse" x1="25.7863" y1="388.2263" x2="30.6766" y2="388.2263" gradientTransform="matrix(6.123234e-017 1 1 -6.123234e-017 -347.9537 392.4737)">
			<stop  offset="0.0988" style="stop-color:#E6E6E6"/>
			<stop  offset="0.3688" style="stop-color:#D2D2D2"/>
			<stop  offset="0.6245" style="stop-color:#E3E3E3"/>
			<stop  offset="0.7986" style="stop-color:#D1D1D1"/>
		</linearGradient>
		<rect x="38.259" y="418.26" fill="url(#SVGID_6_)" width="4.027" height="4.89"/>
	</g>
	<linearGradient id="SVGID_7_" gradientUnits="userSpaceOnUse" x1="16.8443" y1="414.4704" x2="189.3876" y2="12.931">
		<stop  offset="0" style="stop-color:#FFFFFF;stop-opacity:0.16"/>
		<stop  offset="1" style="stop-color:#FFFFFF;stop-opacity:0.05"/>
	</linearGradient>
	<path stroke="url(#SVGID_7_)" stroke-width="0.1438" d="M204.72,39.99c0-1.42-0.02-2.76-0.04-4.03c-0.05-2.75-0.14-5.18-0.32-7.33
		c-0.38-4.65-1.13-8.09-2.65-11.06c-1.23-2.42-2.81-4.62-4.66-6.57c-0.2-0.22-0.41-0.43-0.63-0.64c-2.01-1.98-4.33-3.66-6.87-4.95
		c-2.98-1.52-6.41-2.28-11.06-2.66c-3.99-0.33-8.86-0.37-15.1-0.38H48.38c-7.81,0-13.67,0-18.32,0.38
		c-4.64,0.38-8.08,1.14-11.05,2.66c-2.55,1.29-4.86,2.97-6.88,4.95c-0.12,0.11-0.23,0.22-0.34,0.34c-1.98,2.02-3.65,4.32-4.95,6.87
		c-1.51,2.97-2.27,6.41-2.65,11.06c-0.18,2.15-0.28,4.58-0.32,7.33c-0.02,1.27-0.04,2.61-0.05,4.03c-0.01,2.13-0.01,4.44-0.01,6.96
		v328.1c0,3.21,0,6.09,0.03,8.69c0.01,1.43,0.03,2.77,0.07,4.03c0.05,2.05,0.14,3.91,0.28,5.6c0.38,4.65,1.14,8.09,2.65,11.06
		c1.3,2.54,2.97,4.85,4.95,6.86c0.11,0.12,0.23,0.24,0.35,0.35c2.02,1.98,4.32,3.66,6.87,4.95c2.97,1.52,6.41,2.28,11.05,2.66
		c2.38,0.19,5.08,0.29,8.2,0.33c1.27,0.02,2.61,0.03,4.03,0.04c1.89,0.01,3.92,0.01,6.09,0.01h111.79c7.82,0,13.67,0,18.32-0.38
		c4.65-0.38,8.08-1.14,11.06-2.66c2.53-1.29,4.85-2.97,6.86-4.95c0.22-0.2,0.44-0.42,0.64-0.65c1.86-1.94,3.43-4.14,4.66-6.56
		c1.52-2.97,2.27-6.41,2.65-11.06c0.14-1.69,0.22-3.55,0.27-5.6c0.05-1.26,0.07-2.6,0.08-4.03c0.03-2.6,0.03-5.48,0.03-8.69V46.95
		C204.74,44.44,204.74,42.12,204.72,39.99z M197.05,380.35c0,10.95,0,16.43-2.13,20.61c-1.88,3.68-4.87,6.68-8.55,8.55
		c-4.19,2.13-9.66,2.13-20.62,2.13H42.8c-10.95,0-16.43,0-20.61-2.13c-3.68-1.87-6.68-4.87-8.55-8.55
		c-1.05-2.06-1.59-4.44-1.85-7.65V28.69c0.26-3.21,0.8-5.59,1.85-7.65c1.87-3.68,4.87-6.68,8.55-8.55
		c4.18-2.13,9.66-2.13,20.61-2.13h9.62c0.47,0,0.71,0,0.9,0.07c0.32,0.11,0.57,0.36,0.69,0.68c0.07,0.19,0.07,0.43,0.07,0.91
		c0,3.81,0,5.71,0.56,7.24c0.93,2.55,2.94,4.57,5.5,5.5c1.52,0.55,3.43,0.55,7.24,0.55h73.8c3.81,0,5.71,0,7.24-0.55
		c2.56-0.93,4.57-2.95,5.5-5.5c0.55-1.53,0.55-3.43,0.55-7.24c0-0.48,0-0.72,0.07-0.91c0.12-0.32,0.37-0.57,0.69-0.68
		c0.19-0.07,0.43-0.07,0.91-0.07h9.61c10.96,0,16.43,0,20.62,2.13c3.68,1.87,6.67,4.87,8.55,8.55c2.13,4.18,2.13,9.66,2.13,20.61
		V380.35z"/>
	<g>
		
			<linearGradient id="SVGID_8_" gradientUnits="userSpaceOnUse" x1="0" y1="347.9203" x2="1.4383" y2="347.9203" gradientTransform="matrix(1 0 0 -1 0 423)">
			<stop  offset="0" style="stop-color:#000000;stop-opacity:0"/>
			<stop  offset="0.3333" style="stop-color:#D0D0D0;stop-opacity:0.42"/>
			<stop  offset="1" style="stop-color:#000000;stop-opacity:0.24"/>
		</linearGradient>
		<path fill="url(#SVGID_8_)" d="M0,67.313c0-0.318,0.258-0.575,0.575-0.575h0.863v16.684H0.575C0.258,83.422,0,83.164,0,82.847
			V67.313z"/>
	</g>
	<g>
		
			<linearGradient id="SVGID_9_" gradientUnits="userSpaceOnUse" x1="0" y1="309.9489" x2="1.4383" y2="309.9489" gradientTransform="matrix(1 0 0 -1 0 423)">
			<stop  offset="0" style="stop-color:#000000;stop-opacity:0"/>
			<stop  offset="0.3333" style="stop-color:#D0D0D0;stop-opacity:0.42"/>
			<stop  offset="1" style="stop-color:#000000;stop-opacity:0.24"/>
		</linearGradient>
		<path fill="url(#SVGID_9_)" d="M0,97.518c0-0.318,0.258-0.575,0.575-0.575h0.863v32.218H0.575c-0.318,0-0.575-0.257-0.575-0.575
			V97.518z"/>
	</g>
	<g>
		
			<linearGradient id="SVGID_10_" gradientUnits="userSpaceOnUse" x1="207.117" y1="289.525" x2="208.555" y2="289.525" gradientTransform="matrix(1 0 0 -1 0 423)">
			<stop  offset="0" style="stop-color:#000000;stop-opacity:0.24"/>
			<stop  offset="0.5738" style="stop-color:#D0D0D0;stop-opacity:0.42"/>
			<stop  offset="1" style="stop-color:#000000;stop-opacity:0"/>
		</linearGradient>
		<path fill="url(#SVGID_10_)" d="M207.117,108.448h0.863c0.317,0,0.575,0.258,0.575,0.576v48.902c0,0.318-0.258,0.576-0.575,0.576
			h-0.863V108.448z"/>
	</g>
	<g>
		
			<linearGradient id="SVGID_11_" gradientUnits="userSpaceOnUse" x1="0" y1="270.539" x2="1.4383" y2="270.539" gradientTransform="matrix(1 0 0 -1 0 423)">
			<stop  offset="0" style="stop-color:#000000;stop-opacity:0"/>
			<stop  offset="0.3333" style="stop-color:#D0D0D0;stop-opacity:0.42"/>
			<stop  offset="1" style="stop-color:#000000;stop-opacity:0.24"/>
		</linearGradient>
		<path fill="url(#SVGID_11_)" d="M0,136.927c0-0.318,0.258-0.575,0.575-0.575h0.863v32.218H0.575c-0.318,0-0.575-0.258-0.575-0.575
			V136.927z"/>
	</g>
</g>
<g>
	<defs>
		<filter id="Adobe_OpacityMaskFilter_1_" filterUnits="userSpaceOnUse" x="0.288" y="-2.014" width="207.98" height="425.164">
			<feColorMatrix  type="matrix" values="1 0 0 0 0  0 1 0 0 0  0 0 1 0 0  0 0 0 1 0"/>
		</filter>
	</defs>
	<mask maskUnits="userSpaceOnUse" x="0.288" y="-2.014" width="207.98" height="425.164" id="mask1_81_101">
		<path filter="url(#Adobe_OpacityMaskFilter_1_)" d="M1.438,47.867c0-16.755,0-25.133,3.261-31.532
			c2.868-5.629,7.445-10.206,13.074-13.074C24.173,0,32.55,0,49.305,0H159.25c16.755,0,25.132,0,31.532,3.261
			c5.629,2.868,10.206,7.445,13.074,13.074c3.261,6.399,3.261,14.777,3.261,31.532v326.266c0,16.755,0,25.133-3.261,31.532
			c-2.868,5.629-7.445,10.206-13.074,13.074C184.382,422,176.005,422,159.25,422H49.305c-16.755,0-25.132,0-31.532-3.261
			c-5.629-2.868-10.206-7.445-13.074-13.074c-3.261-6.399-3.261-14.777-3.261-31.532V47.867z"/>
	</mask>
	<g mask="url(#mask1_81_101)">
		<g>
			<path fill="#050505" d="M207.1,39.99c-0.01-1.42-0.02-2.76-0.04-4.03c-0.18-9.25-0.82-14.96-3.2-19.63
				c-2.87-5.62-7.45-10.2-13.08-13.07c-5.85-2.98-13.35-3.24-27.39-3.25C162.1,0,160.76,0,159.36,0H49.31
				C32.55,0,24.17,0,17.77,3.26C12.14,6.13,7.57,10.71,4.7,16.33C2.32,21,1.68,26.71,1.5,35.96c-0.02,1.27-0.03,2.61-0.05,4.03
				c-0.01,2.4-0.01,5.02-0.01,7.88v326.26c0,3.56,0,6.74,0.03,9.61c0.02,1.42,0.04,2.76,0.08,4.03c0.22,8.24,0.93,13.53,3.15,17.9
				c2.87,5.62,7.44,10.2,13.07,13.07c4.81,2.45,10.73,3.06,20.49,3.21c1.28,0.02,2.62,0.03,4.03,0.04c2.16,0.01,4.5,0.01,7.02,0.01
				h109.94c16.76,0,25.13,0,31.53-3.26c5.63-2.87,10.21-7.45,13.08-13.07c2.22-4.37,2.93-9.66,3.15-17.9
				c0.04-1.27,0.06-2.61,0.08-4.03c0.03-2.87,0.03-6.05,0.03-9.61V47.87C207.12,45.01,207.12,42.39,207.1,39.99z M186.37,409.51
				c-4.19,2.13-9.66,2.13-20.62,2.13H42.8c-10.95,0-16.43,0-20.61-2.13c-3.68-1.87-6.68-4.87-8.55-8.55
				c-1.05-2.06-1.59-4.44-1.85-7.65V28.69c0.26-3.21,0.8-5.59,1.85-7.65c1.87-3.68,4.87-6.68,8.55-8.55
				c4.18-2.13,9.66-2.13,20.61-2.13h9.62c0.47,0,0.71,0,0.9,0.07c0.32,0.11,0.57,0.36,0.69,0.68c0.07,0.19,0.07,0.43,0.07,0.91
				c0,3.81,0,5.71,0.56,7.24c0.93,2.55,2.94,4.57,5.5,5.5c1.52,0.55,3.43,0.55,7.24,0.55h73.8c3.81,0,5.71,0,7.24-0.55
				c2.56-0.93,4.57-2.95,5.5-5.5c0.55-1.53,0.55-3.43,0.55-7.24c0-0.48,0-0.72,0.07-0.91c0.12-0.32,0.37-0.57,0.69-0.68
				c0.19-0.07,0.43-0.07,0.91-0.07h9.61c10.96,0,16.43,0,20.62,2.13c3.68,1.87,6.67,4.87,8.55,8.55c2.13,4.18,2.13,9.66,2.13,20.61
				v338.7c0,10.95,0,16.43-2.13,20.61C193.04,404.64,190.05,407.64,186.37,409.51z"/>
		</g>
		<linearGradient id="SVGID_12_" gradientUnits="userSpaceOnUse" x1="104.28" y1="421.9977" x2="104.28" y2="0.0023">
			<stop  offset="0" style="stop-color:#FFFFFF;stop-opacity:0.64"/>
			<stop  offset="1" style="stop-color:#FFFFFF;stop-opacity:0.32"/>
		</linearGradient>
		<path fill="none" stroke="url(#SVGID_12_)" stroke-width="0.5753" d="M206.81,39.99c-0.01-1.42-0.02-2.76-0.04-4.03
			c-0.06-2.9-0.17-5.44-0.35-7.72c-0.4-4.97-1.21-8.62-2.82-11.77c-2.84-5.58-7.37-10.11-12.95-12.95
			c-3.15-1.61-6.8-2.42-11.77-2.83c-4.12-0.33-9.13-0.39-15.49-0.39c-1.29-0.01-2.63-0.01-4.03-0.01H49.31
			c-8.39,0-14.66,0-19.63,0.4C24.71,1.1,21.06,1.91,17.9,3.52C12.33,6.36,7.8,10.89,4.96,16.47c-1.61,3.15-2.42,6.8-2.83,11.77
			c-0.18,2.28-0.28,4.82-0.34,7.72c-0.02,1.27-0.03,2.61-0.05,4.03c-0.01,2.4-0.01,5.02-0.01,7.88v326.26c0,3.56,0,6.75,0.03,9.61
			c0.02,1.42,0.04,2.76,0.08,4.03c0.05,2.2,0.14,4.18,0.29,5.99c0.41,4.97,1.22,8.62,2.83,11.78c2.84,5.57,7.37,10.1,12.94,12.94
			c3.16,1.61,6.81,2.42,11.78,2.83c2.5,0.2,5.32,0.3,8.58,0.35c1.27,0.02,2.62,0.03,4.03,0.04c2.16,0.01,4.5,0.01,7.02,0.01h109.94
			c8.38,0,14.65,0,19.63-0.4c4.97-0.41,8.62-1.22,11.77-2.83c5.58-2.84,10.11-7.37,12.95-12.94c1.61-3.16,2.42-6.81,2.82-11.78
			c0.15-1.81,0.24-3.79,0.3-5.99c0.04-1.27,0.06-2.61,0.08-4.03c0.03-2.86,0.03-6.05,0.03-9.61V47.87
			C206.83,45.01,206.83,42.39,206.81,39.99z M186.37,409.51c-4.19,2.13-9.66,2.13-20.62,2.13H42.8c-10.95,0-16.43,0-20.61-2.13
			c-3.68-1.87-6.68-4.87-8.55-8.55c-1.05-2.06-1.59-4.44-1.85-7.65V28.69c0.26-3.21,0.8-5.59,1.85-7.65
			c1.87-3.68,4.87-6.68,8.55-8.55c4.18-2.13,9.66-2.13,20.61-2.13h9.62c0.47,0,0.71,0,0.9,0.07c0.32,0.11,0.57,0.36,0.69,0.68
			c0.07,0.19,0.07,0.43,0.07,0.91c0,3.81,0,5.71,0.56,7.24c0.93,2.55,2.94,4.57,5.5,5.5c1.52,0.55,3.43,0.55,7.24,0.55h73.8
			c3.81,0,5.71,0,7.24-0.55c2.56-0.93,4.57-2.95,5.5-5.5c0.55-1.53,0.55-3.43,0.55-7.24c0-0.48,0-0.72,0.07-0.91
			c0.12-0.32,0.37-0.57,0.69-0.68c0.19-0.07,0.43-0.07,0.91-0.07h9.61c10.96,0,16.43,0,20.62,2.13c3.68,1.87,6.67,4.87,8.55,8.55
			c2.13,4.18,2.13,9.66,2.13,20.61v338.7c0,10.95,0,16.43-2.13,20.61C193.04,404.64,190.05,407.64,186.37,409.51z"/>
		
			<linearGradient id="SVGID_13_" gradientUnits="userSpaceOnUse" x1="0.2877" y1="385.0286" x2="5.1779" y2="385.0286" gradientTransform="matrix(1 0 0 -1 0 423)">
			<stop  offset="0.1236" style="stop-color:#8F8F8F"/>
			<stop  offset="0.3657" style="stop-color:#525252"/>
			<stop  offset="0.8277" style="stop-color:#141414"/>
		</linearGradient>
		<rect x="0.288" y="35.958" fill="url(#SVGID_13_)" width="4.89" height="4.027"/>
		
			<linearGradient id="SVGID_14_" gradientUnits="userSpaceOnUse" x1="0.2877" y1="37.2454" x2="5.1779" y2="37.2454" gradientTransform="matrix(1 0 0 -1 0 423)">
			<stop  offset="0.1236" style="stop-color:#8F8F8F"/>
			<stop  offset="0.3657" style="stop-color:#525252"/>
			<stop  offset="0.8277" style="stop-color:#141414"/>
		</linearGradient>
		<rect x="0.288" y="383.741" fill="url(#SVGID_14_)" width="4.89" height="4.027"/>
		
			<linearGradient id="SVGID_15_" gradientUnits="userSpaceOnUse" x1="203.377" y1="385.0286" x2="208.2672" y2="385.0286" gradientTransform="matrix(1 0 0 -1 0 423)">
			<stop  offset="0.0882" style="stop-color:#141414"/>
			<stop  offset="0.5364" style="stop-color:#525252"/>
			<stop  offset="0.7566" style="stop-color:#8F8F8F"/>
		</linearGradient>
		<rect x="203.377" y="35.958" fill="url(#SVGID_15_)" width="4.89" height="4.027"/>
		
			<linearGradient id="SVGID_16_" gradientUnits="userSpaceOnUse" x1="203.377" y1="37.2454" x2="208.2672" y2="37.2454" gradientTransform="matrix(1 0 0 -1 0 423)">
			<stop  offset="0.0882" style="stop-color:#141414"/>
			<stop  offset="0.5293" style="stop-color:#525252"/>
			<stop  offset="0.7708" style="stop-color:#8F8F8F"/>
		</linearGradient>
		<rect x="203.377" y="383.741" fill="url(#SVGID_16_)" width="4.89" height="4.027"/>
		
			<linearGradient id="SVGID_17_" gradientUnits="userSpaceOnUse" x1="146.892" y1="808.5001" x2="151.7822" y2="808.5001" gradientTransform="matrix(6.123234e-017 1 1 -6.123234e-017 -647.1217 -148.9057)">
			<stop  offset="0.4201" style="stop-color:#8F8F8F"/>
			<stop  offset="0.6104" style="stop-color:#525252"/>
			<stop  offset="0.9763" style="stop-color:#141414"/>
		</linearGradient>
		<rect x="159.365" y="-2.014" fill="url(#SVGID_17_)" width="4.027" height="4.89"/>
		
			<linearGradient id="SVGID_18_" gradientUnits="userSpaceOnUse" x1="25.7863" y1="388.2263" x2="30.6766" y2="388.2263" gradientTransform="matrix(6.123234e-017 1 1 -6.123234e-017 -347.9537 392.4737)">
			<stop  offset="0.1229" style="stop-color:#000000"/>
			<stop  offset="0.5846" style="stop-color:#292929"/>
			<stop  offset="0.8759" style="stop-color:#7A7A7A"/>
		</linearGradient>
		<rect x="38.259" y="418.26" fill="url(#SVGID_18_)" width="4.027" height="4.89"/>
	</g>
	<linearGradient id="SVGID_19_" gradientUnits="userSpaceOnUse" x1="16.8443" y1="414.4704" x2="189.3876" y2="12.931">
		<stop  offset="0" style="stop-color:#FFFFFF;stop-opacity:0.16"/>
		<stop  offset="1" style="stop-color:#FFFFFF;stop-opacity:0.05"/>
	</linearGradient>
	<path stroke="url(#SVGID_19_)" stroke-width="0.1438" d="M204.72,39.99c0-1.42-0.02-2.76-0.04-4.03c-0.05-2.75-0.14-5.18-0.32-7.33
		c-0.38-4.65-1.13-8.09-2.65-11.06c-1.23-2.42-2.81-4.62-4.66-6.57c-0.2-0.22-0.41-0.43-0.63-0.64c-2.01-1.98-4.33-3.66-6.87-4.95
		c-2.98-1.52-6.41-2.28-11.06-2.66c-3.99-0.33-8.86-0.37-15.1-0.38H48.38c-7.81,0-13.67,0-18.32,0.38
		c-4.64,0.38-8.08,1.14-11.05,2.66c-2.55,1.29-4.86,2.97-6.88,4.95c-0.12,0.11-0.23,0.22-0.34,0.34c-1.98,2.02-3.65,4.32-4.95,6.87
		c-1.51,2.97-2.27,6.41-2.65,11.06c-0.18,2.15-0.28,4.58-0.32,7.33c-0.02,1.27-0.04,2.61-0.05,4.03c-0.01,2.13-0.01,4.44-0.01,6.96
		v328.1c0,3.21,0,6.09,0.03,8.69c0.01,1.43,0.03,2.77,0.07,4.03c0.05,2.05,0.14,3.91,0.28,5.6c0.38,4.65,1.14,8.09,2.65,11.06
		c1.3,2.54,2.97,4.85,4.95,6.86c0.11,0.12,0.23,0.24,0.35,0.35c2.02,1.98,4.32,3.66,6.87,4.95c2.97,1.52,6.41,2.28,11.05,2.66
		c2.38,0.19,5.08,0.29,8.2,0.33c1.27,0.02,2.61,0.03,4.03,0.04c1.89,0.01,3.92,0.01,6.09,0.01h111.79c7.82,0,13.67,0,18.32-0.38
		c4.65-0.38,8.08-1.14,11.06-2.66c2.53-1.29,4.85-2.97,6.86-4.95c0.22-0.2,0.44-0.42,0.64-0.65c1.86-1.94,3.43-4.14,4.66-6.56
		c1.52-2.97,2.27-6.41,2.65-11.06c0.14-1.69,0.22-3.55,0.27-5.6c0.05-1.26,0.07-2.6,0.08-4.03c0.03-2.6,0.03-5.48,0.03-8.69V46.95
		C204.74,44.44,204.74,42.12,204.72,39.99z M197.05,380.35c0,10.95,0,16.43-2.13,20.61c-1.88,3.68-4.87,6.68-8.55,8.55
		c-4.19,2.13-9.66,2.13-20.62,2.13H42.8c-10.95,0-16.43,0-20.61-2.13c-3.68-1.87-6.68-4.87-8.55-8.55
		c-1.05-2.06-1.59-4.44-1.85-7.65V28.69c0.26-3.21,0.8-5.59,1.85-7.65c1.87-3.68,4.87-6.68,8.55-8.55
		c4.18-2.13,9.66-2.13,20.61-2.13h9.62c0.47,0,0.71,0,0.9,0.07c0.32,0.11,0.57,0.36,0.69,0.68c0.07,0.19,0.07,0.43,0.07,0.91
		c0,3.81,0,5.71,0.56,7.24c0.93,2.55,2.94,4.57,5.5,5.5c1.52,0.55,3.43,0.55,7.24,0.55h73.8c3.81,0,5.71,0,7.24-0.55
		c2.56-0.93,4.57-2.95,5.5-5.5c0.55-1.53,0.55-3.43,0.55-7.24c0-0.48,0-0.72,0.07-0.91c0.12-0.32,0.37-0.57,0.69-0.68
		c0.19-0.07,0.43-0.07,0.91-0.07h9.61c10.96,0,16.43,0,20.62,2.13c3.68,1.87,6.67,4.87,8.55,8.55c2.13,4.18,2.13,9.66,2.13,20.61
		V380.35z"/>
	<path d="M11.79,28.69v364.62c-0.28-3.28-0.28-7.42-0.28-12.96V41.65C11.51,36.11,11.51,31.97,11.79,28.69z"/>
	<g>
		
			<linearGradient id="SVGID_20_" gradientUnits="userSpaceOnUse" x1="0" y1="347.9203" x2="1.4383" y2="347.9203" gradientTransform="matrix(1 0 0 -1 0 423)">
			<stop  offset="0" style="stop-color:#FFFFFF;stop-opacity:0.08"/>
			<stop  offset="0.276" style="stop-color:#FFFFFF;stop-opacity:0.24"/>
			<stop  offset="1" style="stop-color:#FFFFFF;stop-opacity:0"/>
		</linearGradient>
		<path fill="url(#SVGID_20_)" d="M0,67.313c0-0.318,0.258-0.575,0.575-0.575h0.863v16.684H0.575C0.258,83.422,0,83.164,0,82.847
			V67.313z"/>
	</g>
	<g>
		
			<linearGradient id="SVGID_21_" gradientUnits="userSpaceOnUse" x1="0" y1="309.9489" x2="1.4383" y2="309.9489" gradientTransform="matrix(1 0 0 -1 0 423)">
			<stop  offset="0" style="stop-color:#FFFFFF;stop-opacity:0.08"/>
			<stop  offset="0.276" style="stop-color:#FFFFFF;stop-opacity:0.24"/>
			<stop  offset="1" style="stop-color:#FFFFFF;stop-opacity:0"/>
		</linearGradient>
		<path fill="url(#SVGID_21_)" d="M0,97.518c0-0.318,0.258-0.575,0.575-0.575h0.863v32.218H0.575c-0.318,0-0.575-0.257-0.575-0.575
			V97.518z"/>
	</g>
	<g>
		
			<linearGradient id="SVGID_22_" gradientUnits="userSpaceOnUse" x1="207.117" y1="289.525" x2="208.555" y2="289.525" gradientTransform="matrix(1 0 0 -1 0 423)">
			<stop  offset="0" style="stop-color:#FFFFFF;stop-opacity:0"/>
			<stop  offset="0.6302" style="stop-color:#FFFFFF;stop-opacity:0.24"/>
			<stop  offset="1" style="stop-color:#FFFFFF;stop-opacity:0.08"/>
		</linearGradient>
		<path fill="url(#SVGID_22_)" d="M207.117,108.448h0.863c0.317,0,0.575,0.258,0.575,0.576v48.902c0,0.318-0.258,0.576-0.575,0.576
			h-0.863V108.448z"/>
	</g>
	<g>
		
			<linearGradient id="SVGID_23_" gradientUnits="userSpaceOnUse" x1="0" y1="270.539" x2="1.4383" y2="270.539" gradientTransform="matrix(1 0 0 -1 0 423)">
			<stop  offset="0" style="stop-color:#FFFFFF;stop-opacity:0.08"/>
			<stop  offset="0.276" style="stop-color:#FFFFFF;stop-opacity:0.24"/>
			<stop  offset="1" style="stop-color:#FFFFFF;stop-opacity:0"/>
		</linearGradient>
		<path fill="url(#SVGID_23_)" d="M0,136.927c0-0.318,0.258-0.575,0.575-0.575h0.863v32.218H0.575c-0.318,0-0.575-0.258-0.575-0.575
			V136.927z"/>
	</g>
</g>
<defs>
	<filter id="Adobe_OpacityMaskFilter_2_" filterUnits="userSpaceOnUse" x="11.79" y="10.36" width="185.26" height="401.28">
		<feColorMatrix  type="matrix" values="1 0 0 0 0  0 1 0 0 0  0 0 1 0 0  0 0 0 1 0"/>
	</filter>
</defs>
<mask maskUnits="userSpaceOnUse" x="11.79" y="10.36" width="185.26" height="401.28" id="mask2_81_101">
	<path fill="#161616" filter="url(#Adobe_OpacityMaskFilter_2_)" d="M13.639,21.036c-2.132,4.184-2.132,9.662-2.132,20.617v338.693
		c0,10.956,0,16.433,2.132,20.618c1.875,3.68,4.868,6.673,8.549,8.548c4.184,2.132,9.662,2.132,20.617,2.132h122.947
		c10.955,0,16.433,0,20.617-2.132c3.681-1.875,6.673-4.868,8.548-8.548c2.132-4.185,2.132-9.662,2.132-20.618V41.653
		c0-10.955,0-16.433-2.132-20.617c-1.875-3.681-4.867-6.673-8.548-8.548c-4.184-2.132-9.662-2.132-20.617-2.132h-9.615
		c-0.476,0-0.714,0-0.904,0.069c-0.32,0.116-0.572,0.368-0.688,0.688c-0.07,0.191-0.07,0.429-0.07,0.905
		c0,3.809,0,5.714-0.555,7.239c-0.93,2.557-2.944,4.571-5.501,5.502c-1.526,0.555-3.43,0.555-7.24,0.555H67.377
		c-3.81,0-5.714,0-7.24-0.555c-2.557-0.931-4.571-2.945-5.502-5.502c-0.555-1.525-0.555-3.43-0.555-7.239
		c0-0.476,0-0.714-0.069-0.905c-0.116-0.32-0.368-0.571-0.688-0.688c-0.191-0.069-0.429-0.069-0.905-0.069h-9.614
		c-10.955,0-16.433,0-20.617,2.132C18.506,14.363,15.514,17.356,13.639,21.036z"/>
</mask>
<g mask="url(#mask2_81_101)">
	<path fill="none" d="M42.8,10.36c-10.95,0-16.43,0-20.61,2.13c-3.68,1.87-6.68,4.87-8.55,8.55c-1.05,2.06-1.59,4.44-1.85,7.65
		V10.36H42.8z"/>
	<path fill="none" d="M22.19,409.51c4.18,2.13,9.66,2.13,20.61,2.13H11.79v-18.33c0.26,3.21,0.8,5.59,1.85,7.65
		C15.51,404.64,18.51,407.64,22.19,409.51z"/>
	<path fill="none" d="M52.42,10.36h103.72c-0.48,0-0.72,0-0.91,0.07c-0.32,0.11-0.57,0.36-0.69,0.68c-0.07,0.19-0.07,0.43-0.07,0.91
		c0,3.81,0,5.71-0.55,7.24c-0.93,2.55-2.94,4.57-5.5,5.5c-1.53,0.55-3.43,0.55-7.24,0.55h-73.8c-3.81,0-5.72,0-7.24-0.55
		c-2.56-0.93-4.57-2.95-5.5-5.5c-0.56-1.53-0.56-3.43-0.56-7.24c0-0.48,0-0.72-0.07-0.91c-0.12-0.32-0.37-0.57-0.69-0.68
		C53.13,10.36,52.89,10.36,52.42,10.36z"/>
	<path fill="none" d="M197.05,10.36v31.29c0-10.95,0-16.43-2.13-20.61c-1.88-3.68-4.87-6.68-8.55-8.55
		c-4.19-2.13-9.66-2.13-20.62-2.13H197.05z"/>
	<path fill="none" d="M194.92,400.96c2.13-4.18,2.13-9.66,2.13-20.61v31.29h-31.3c10.96,0,16.43,0,20.62-2.13
		C190.05,407.64,193.04,404.64,194.92,400.96z"/>
	<path fill="none" d="M42.8,10.36c-10.95,0-16.43,0-20.61,2.13c-3.68,1.87-6.68,4.87-8.55,8.55c-1.05,2.06-1.59,4.44-1.85,7.65
		V10.36H42.8z"/>
	<path fill="none" d="M22.19,409.51c4.18,2.13,9.66,2.13,20.61,2.13H11.79v-18.33c0.26,3.21,0.8,5.59,1.85,7.65
		C15.51,404.64,18.51,407.64,22.19,409.51z"/>
	<path fill="none" d="M52.42,10.36h103.72c-0.48,0-0.72,0-0.91,0.07c-0.32,0.11-0.57,0.36-0.69,0.68c-0.07,0.19-0.07,0.43-0.07,0.91
		c0,3.81,0,5.71-0.55,7.24c-0.93,2.55-2.94,4.57-5.5,5.5c-1.53,0.55-3.43,0.55-7.24,0.55h-73.8c-3.81,0-5.72,0-7.24-0.55
		c-2.56-0.93-4.57-2.95-5.5-5.5c-0.56-1.53-0.56-3.43-0.56-7.24c0-0.48,0-0.72-0.07-0.91c-0.12-0.32-0.37-0.57-0.69-0.68
		C53.13,10.36,52.89,10.36,52.42,10.36z"/>
	<path fill="none" d="M197.05,10.36v31.29c0-10.95,0-16.43-2.13-20.61c-1.88-3.68-4.87-6.68-8.55-8.55
		c-4.19-2.13-9.66-2.13-20.62-2.13H197.05z"/>
	<path fill="none" d="M194.92,400.96c2.13-4.18,2.13-9.66,2.13-20.61v31.29h-31.3c10.96,0,16.43,0,20.62-2.13
		C190.05,407.64,193.04,404.64,194.92,400.96z"/>
</g>
<g>
	<path fill="#161616" d="M93.202,15.821c0-1.112,0.901-2.014,2.014-2.014h18.41c1.112,0,2.014,0.901,2.014,2.014
		s-0.902,2.014-2.014,2.014h-18.41C94.104,17.835,93.202,16.934,93.202,15.821z"/>
</g>
<g>
	<path fill="none" stroke="#000000" stroke-width="0.5753" stroke-opacity="0.32" d="M93.49,15.821c0-0.953,0.773-1.726,1.726-1.726
		h18.41c0.954,0,1.726,0.773,1.726,1.726c0,0.953-0.772,1.726-1.726,1.726h-18.41C94.263,17.548,93.49,16.775,93.49,15.821z"/>
</g>
<linearGradient id="SVGID_24_" gradientUnits="userSpaceOnUse" x1="104.4211" y1="409.1921" x2="104.4211" y2="405.1649" gradientTransform="matrix(1 0 0 -1 0 423)">
	<stop  offset="0" style="stop-color:#000000"/>
	<stop  offset="0.483" style="stop-color:#484848"/>
	<stop  offset="1" style="stop-color:#000000"/>
</linearGradient>
<path fill="none" stroke="url(#SVGID_24_)" stroke-width="0.2877" d="M93.346,15.821c0-1.033,0.837-1.87,1.87-1.87h18.41
	c1.033,0,1.87,0.837,1.87,1.87s-0.837,1.87-1.87,1.87h-18.41C94.183,17.691,93.346,16.854,93.346,15.821z"/>
<radialGradient id="SVGID_25_" cx="-268.2415" cy="595.9375" r="1" gradientTransform="matrix(-2.4451 -3.1643 -3.1643 2.4451 1354.8265 -2288.2349)" gradientUnits="userSpaceOnUse">
	<stop  offset="0" style="stop-color:#242424"/>
	<stop  offset="1" style="stop-color:#161616"/>
</radialGradient>
<path fill="url(#SVGID_25_)" d="M120.243,15.821c0-2.224,1.803-4.027,4.027-4.027c2.224,0,4.027,1.803,4.027,4.027
	s-1.803,4.027-4.027,4.027C122.046,19.849,120.243,18.046,120.243,15.821z"/>
<radialGradient id="SVGID_26_" cx="-155.1873" cy="657.4097" r="1" gradientTransform="matrix(2.465992e-016 4.0273 4.0273 -2.465992e-016 -2523.2964 640.8027)" gradientUnits="userSpaceOnUse">
	<stop  offset="0.4635" style="stop-color:#000000;stop-opacity:0.25"/>
	<stop  offset="0.6458" style="stop-color:#000000;stop-opacity:0"/>
</radialGradient>
<path fill="url(#SVGID_26_)" d="M120.243,15.821c0-2.224,1.803-4.027,4.027-4.027c2.224,0,4.027,1.803,4.027,4.027
	s-1.803,4.027-4.027,4.027C122.046,19.849,120.243,18.046,120.243,15.821z"/>
<linearGradient id="SVGID_27_" gradientUnits="userSpaceOnUse" x1="124.2695" y1="409.1921" x2="124.2695" y2="405.1649" gradientTransform="matrix(1 0 0 -1 0 423)">
	<stop  offset="0" style="stop-color:#0B528D"/>
	<stop  offset="0.276" style="stop-color:#3625AF"/>
	<stop  offset="0.5104" style="stop-color:#070D17"/>
	<stop  offset="0.7344" style="stop-color:#16618F"/>
	<stop  offset="1" style="stop-color:#021762"/>
</linearGradient>
<path fill="url(#SVGID_27_)" d="M126.283,15.821c0-1.112-0.901-2.014-2.013-2.014c-1.112,0-2.014,0.901-2.014,2.014
	s0.902,2.014,2.014,2.014C125.382,17.835,126.283,16.934,126.283,15.821z"/>
<radialGradient id="SVGID_28_" cx="-81.4478" cy="641.4276" r="1" gradientTransform="matrix(1.1506 1.8698 1.8698 -1.1506 -982.9351 905.7366)" gradientUnits="userSpaceOnUse">
	<stop  offset="0" style="stop-color:#070D17"/>
	<stop  offset="1" style="stop-color:#070D17;stop-opacity:0"/>
</radialGradient>
<path fill="url(#SVGID_28_)" d="M126.283,15.821c0-1.112-0.901-2.014-2.013-2.014c-1.112,0-2.014,0.901-2.014,2.014
	s0.902,2.014,2.014,2.014C125.382,17.835,126.283,16.934,126.283,15.821z"/>
<radialGradient id="SVGID_29_" cx="-121.7779" cy="771.0134" r="1" gradientTransform="matrix(-0.4315 1.4383 1.4383 0.4315 -1036.9454 -141.4184)" gradientUnits="userSpaceOnUse">
	<stop  offset="0.1468" style="stop-color:#070D17"/>
	<stop  offset="1" style="stop-color:#070D17;stop-opacity:0"/>
</radialGradient>
<path fill="url(#SVGID_29_)" d="M126.283,15.821c0-1.112-0.901-2.014-2.013-2.014c-1.112,0-2.014,0.901-2.014,2.014
	s0.902,2.014,2.014,2.014C125.382,17.835,126.283,16.934,126.283,15.821z"/>
<radialGradient id="SVGID_30_" cx="-180.9063" cy="903.0708" r="1" gradientTransform="matrix(-0.5753 0.7192 0.7192 0.5753 -628.6806 -374.0709)" gradientUnits="userSpaceOnUse">
	<stop  offset="0" style="stop-color:#6356D7"/>
	<stop  offset="1" style="stop-color:#15368A;stop-opacity:0"/>
</radialGradient>
<path fill="url(#SVGID_30_)" d="M126.283,15.821c0-1.112-0.901-2.014-2.013-2.014c-1.112,0-2.014,0.901-2.014,2.014
	s0.902,2.014,2.014,2.014C125.382,17.835,126.283,16.934,126.283,15.821z"/>
<radialGradient id="SVGID_31_" cx="-109.3744" cy="707.3195" r="1" gradientTransform="matrix(1.232993e-016 2.0136 2.0136 -1.232993e-016 -1300.0101 236.0611)" gradientUnits="userSpaceOnUse">
	<stop  offset="0.8281" style="stop-color:#000000;stop-opacity:0"/>
	<stop  offset="1" style="stop-color:#000000;stop-opacity:0.85"/>
</radialGradient>
<path fill="url(#SVGID_31_)" d="M126.283,15.821c0-1.112-0.901-2.014-2.013-2.014c-1.112,0-2.014,0.901-2.014,2.014
	s0.902,2.014,2.014,2.014C125.382,17.835,126.283,16.934,126.283,15.821z"/>
</svg>
